<svg width="691" height="824" viewBox="0 0 691 824" fill="none" xmlns="http://www.w3.org/2000/svg">
<path d="M179.831 164.273L347.146 20.5342L512.179 164.273L604.202 587.122H86.2871L179.831 164.273Z" fill="white"/>
<path d="M284.022 93.5441L270.333 213.706L337.259 150.583V47.1523L284.022 93.5441Z" fill="#595C5F"/>
<path d="M404.185 93.5441L417.874 214.467L352.469 150.583V47.1523L404.185 93.5441Z" fill="#F9B233"/>
<path d="M194.28 171.878L163.099 314.856L248.277 233.48L262.727 111.036L194.28 171.878Z" fill="#595C5F"/>
<path d="M495.447 171.878L526.628 314.856L441.45 234.241L427 111.036L495.447 171.878Z" fill="#F9B233"/>
<path d="M266.53 238.803L245.996 413.723L337.259 324.742V171.877L266.53 238.803Z" fill="#595C5F"/>
<path d="M422.437 239.564L442.971 414.484L352.469 324.742V171.877L422.437 239.564Z" fill="#F9B233"/>
<path d="M153.973 344.516L111.384 543.012L226.222 433.497L244.475 258.577L153.973 344.516Z" fill="#595C5F"/>
<path d="M535.755 344.516L578.344 543.012L463.505 433.497L445.253 258.577L535.755 344.516Z" fill="#F9B233"/>
<path d="M337.259 571.152H226.223L242.954 438.061L337.259 346.798V571.152Z" fill="#595C5F"/>
<path d="M352.469 571.912H463.505L446.773 438.821L352.469 346.798V571.912Z" fill="#F9B233"/>
<path d="M209.49 571.152H106.06L223.18 457.834L209.49 571.152Z" fill="#595C5F"/>
<path d="M481.758 571.912H585.188L468.068 457.834L481.758 571.912Z" fill="#F9B233"/>
<path d="M54.0635 736.388C47.134 736.388 40.7054 735.303 34.7778 733.132C28.9337 730.878 23.8409 727.705 19.4996 723.614C15.2417 719.523 11.9022 714.723 9.48102 709.213C7.05988 703.619 5.84931 697.483 5.84931 690.804C5.84931 684.125 7.05988 678.03 9.48102 672.52C11.9022 666.926 15.2417 662.084 19.4996 657.993C23.8409 653.902 28.9337 650.771 34.7778 648.601C40.7054 646.346 47.134 645.219 54.0635 645.219C62.1618 645.219 69.3835 646.639 75.7285 649.477C82.1571 652.316 87.5003 656.407 91.7582 661.75L75.979 676.026C73.1404 672.687 70.0096 670.14 66.5866 668.387C63.2471 666.634 59.4902 665.757 55.3158 665.757C51.7258 665.757 48.4281 666.342 45.4225 667.511C42.4169 668.679 39.8288 670.391 37.6581 672.645C35.5709 674.816 33.9012 677.446 32.6489 680.535C31.48 683.624 30.8956 687.047 30.8956 690.804C30.8956 694.561 31.48 697.984 32.6489 701.073C33.9012 704.162 35.5709 706.833 37.6581 709.088C39.8288 711.258 42.4169 712.928 45.4225 714.097C48.4281 715.266 51.7258 715.85 55.3158 715.85C59.4902 715.85 63.2471 714.973 66.5866 713.22C70.0096 711.467 73.1404 708.921 75.979 705.581L91.7582 719.857C87.5003 725.117 82.1571 729.208 75.7285 732.13C69.3835 734.969 62.1618 736.388 54.0635 736.388ZM145.186 736.388C138.173 736.388 131.703 735.261 125.775 733.007C119.848 730.753 114.671 727.58 110.246 723.489C105.905 719.315 102.524 714.472 100.103 708.962C97.6816 703.452 96.471 697.399 96.471 690.804C96.471 684.208 97.6816 678.155 100.103 672.645C102.524 667.135 105.905 662.334 110.246 658.243C114.671 654.069 119.848 650.855 125.775 648.601C131.703 646.346 138.173 645.219 145.186 645.219C152.283 645.219 158.753 646.346 164.597 648.601C170.525 650.855 175.659 654.069 180 658.243C184.342 662.334 187.723 667.135 190.144 672.645C192.649 678.155 193.901 684.208 193.901 690.804C193.901 697.399 192.649 703.494 190.144 709.088C187.723 714.598 184.342 719.398 180 723.489C175.659 727.58 170.525 730.753 164.597 733.007C158.753 735.261 152.283 736.388 145.186 736.388ZM145.186 715.85C148.526 715.85 151.615 715.266 154.453 714.097C157.375 712.928 159.88 711.258 161.967 709.088C164.138 706.833 165.808 704.162 166.976 701.073C168.229 697.984 168.855 694.561 168.855 690.804C168.855 686.963 168.229 683.54 166.976 680.535C165.808 677.446 164.138 674.816 161.967 672.645C159.88 670.391 157.375 668.679 154.453 667.511C151.615 666.342 148.526 665.757 145.186 665.757C141.847 665.757 138.716 666.342 135.794 667.511C132.955 668.679 130.451 670.391 128.28 672.645C126.193 674.816 124.523 677.446 123.271 680.535C122.102 683.54 121.517 686.963 121.517 690.804C121.517 694.561 122.102 697.984 123.271 701.073C124.523 704.162 126.193 706.833 128.28 709.088C130.451 711.258 132.955 712.928 135.794 714.097C138.716 715.266 141.847 715.85 145.186 715.85ZM206.888 734.635V646.973H246.962C254.977 646.973 261.865 648.267 267.625 650.855C273.47 653.443 277.978 657.2 281.15 662.126C284.323 666.968 285.909 672.729 285.909 679.408C285.909 686.003 284.323 691.722 281.15 696.564C277.978 701.323 273.47 704.997 267.625 707.585C261.865 710.089 254.977 711.342 246.962 711.342H220.664L231.684 700.947V734.635H206.888ZM261.113 734.635L239.323 702.701H265.747L287.663 734.635H261.113ZM231.684 703.577L220.664 692.181H245.459C250.636 692.181 254.476 691.054 256.981 688.8C259.569 686.546 260.863 683.415 260.863 679.408C260.863 675.317 259.569 672.144 256.981 669.89C254.476 667.636 250.636 666.509 245.459 666.509H220.664L231.684 655.113V703.577ZM299.589 734.635V646.973H339.663C347.678 646.973 354.566 648.267 360.326 650.855C366.17 653.443 370.679 657.2 373.851 662.126C377.024 666.968 378.61 672.729 378.61 679.408C378.61 686.003 377.024 691.722 373.851 696.564C370.679 701.407 366.17 705.164 360.326 707.835C354.566 710.423 347.678 711.717 339.663 711.717H313.364L324.385 700.947V734.635H299.589ZM324.385 703.577L313.364 692.181H338.16C343.336 692.181 347.177 691.054 349.681 688.8C352.27 686.546 353.564 683.415 353.564 679.408C353.564 675.317 352.27 672.144 349.681 669.89C347.177 667.636 343.336 666.509 338.16 666.509H313.364L324.385 655.113V703.577ZM436.129 736.388C429.116 736.388 422.646 735.261 416.719 733.007C410.791 730.753 405.615 727.58 401.19 723.489C396.848 719.315 393.467 714.472 391.046 708.962C388.625 703.452 387.414 697.399 387.414 690.804C387.414 684.208 388.625 678.155 391.046 672.645C393.467 667.135 396.848 662.334 401.19 658.243C405.615 654.069 410.791 650.855 416.719 648.601C422.646 646.346 429.116 645.219 436.129 645.219C443.226 645.219 449.696 646.346 455.54 648.601C461.468 650.855 466.602 654.069 470.944 658.243C475.285 662.334 478.666 667.135 481.088 672.645C483.592 678.155 484.845 684.208 484.845 690.804C484.845 697.399 483.592 703.494 481.088 709.088C478.666 714.598 475.285 719.398 470.944 723.489C466.602 727.58 461.468 730.753 455.54 733.007C449.696 735.261 443.226 736.388 436.129 736.388ZM436.129 715.85C439.469 715.85 442.558 715.266 445.397 714.097C448.319 712.928 450.823 711.258 452.911 709.088C455.081 706.833 456.751 704.162 457.92 701.073C459.172 697.984 459.798 694.561 459.798 690.804C459.798 686.963 459.172 683.54 457.92 680.535C456.751 677.446 455.081 674.816 452.911 672.645C450.823 670.391 448.319 668.679 445.397 667.511C442.558 666.342 439.469 665.757 436.129 665.757C432.79 665.757 429.659 666.342 426.737 667.511C423.899 668.679 421.394 670.391 419.223 672.645C417.136 674.816 415.466 677.446 414.214 680.535C413.045 683.54 412.461 686.963 412.461 690.804C412.461 694.561 413.045 697.984 414.214 701.073C415.466 704.162 417.136 706.833 419.223 709.088C421.394 711.258 423.899 712.928 426.737 714.097C429.659 715.266 432.79 715.85 436.129 715.85ZM556.44 646.973H581.236V734.635H556.44V646.973ZM522.627 734.635H497.831V646.973H522.627V734.635ZM558.193 700.447H520.874V679.909H558.193V700.447ZM588.207 734.635L626.903 646.973H651.323L690.145 734.635H664.347L634.041 659.12H643.809L613.503 734.635H588.207ZM609.371 717.603L615.758 699.319H658.587L664.974 717.603H609.371Z" fill="#595C5F"/>
<path d="M30.4084 771.835H39.1564V809.635H30.4084V771.835ZM13.2364 809.635H4.48844V771.835H13.2364V809.635ZM31.0564 794.137H12.5884V786.739H31.0564V794.137ZM62.6258 787.063H80.8238V793.867H62.6258V787.063ZM63.2738 802.615H83.8478V809.635H54.5798V771.835H83.1458V778.855H63.2738V802.615ZM97.2883 809.635V771.835H113.65C117.034 771.835 119.95 772.393 122.398 773.509C124.846 774.589 126.736 776.155 128.068 778.207C129.4 780.259 130.066 782.707 130.066 785.551C130.066 788.359 129.4 790.789 128.068 792.841C126.736 794.857 124.846 796.405 122.398 797.485C119.95 798.565 117.034 799.105 113.65 799.105H102.148L106.036 795.271V809.635H97.2883ZM121.318 809.635L111.868 795.919H121.21L130.768 809.635H121.318ZM106.036 796.243L102.148 792.139H113.164C115.864 792.139 117.88 791.563 119.212 790.411C120.544 789.223 121.21 787.603 121.21 785.551C121.21 783.463 120.544 781.843 119.212 780.691C117.88 779.539 115.864 778.963 113.164 778.963H102.148L106.036 774.805V796.243ZM143.477 809.635V771.835H159.839C163.223 771.835 166.139 772.393 168.587 773.509C171.035 774.589 172.925 776.155 174.257 778.207C175.589 780.259 176.255 782.707 176.255 785.551C176.255 788.359 175.589 790.789 174.257 792.841C172.925 794.857 171.035 796.405 168.587 797.485C166.139 798.565 163.223 799.105 159.839 799.105H148.337L152.225 795.271V809.635H143.477ZM167.507 809.635L158.057 795.919H167.399L176.957 809.635H167.507ZM152.225 796.243L148.337 792.139H159.353C162.053 792.139 164.069 791.563 165.401 790.411C166.733 789.223 167.399 787.603 167.399 785.551C167.399 783.463 166.733 781.843 165.401 780.691C164.069 779.539 162.053 778.963 159.353 778.963H148.337L152.225 774.805V796.243ZM197.712 787.063H215.91V793.867H197.712V787.063ZM198.36 802.615H218.934V809.635H189.666V771.835H218.232V778.855H198.36V802.615ZM232.375 809.635V771.835H248.737C252.121 771.835 255.037 772.393 257.485 773.509C259.933 774.589 261.823 776.155 263.155 778.207C264.487 780.259 265.153 782.707 265.153 785.551C265.153 788.359 264.487 790.789 263.155 792.841C261.823 794.857 259.933 796.405 257.485 797.485C255.037 798.565 252.121 799.105 248.737 799.105H237.235L241.123 795.271V809.635H232.375ZM256.405 809.635L246.955 795.919H256.297L265.855 809.635H256.405ZM241.123 796.243L237.235 792.139H248.251C250.951 792.139 252.967 791.563 254.299 790.411C255.631 789.223 256.297 787.603 256.297 785.551C256.297 783.463 255.631 781.843 254.299 780.691C252.967 779.539 250.951 778.963 248.251 778.963H237.235L241.123 774.805V796.243ZM273.596 809.635L290.444 771.835H299.084L315.986 809.635H306.806L292.982 776.263H296.438L282.56 809.635H273.596ZM282.02 801.535L284.342 794.893H303.782L306.158 801.535H282.02ZM360.04 810.283C357.268 810.283 354.802 809.833 352.642 808.933C350.482 808.033 348.772 806.809 347.512 805.261C346.252 803.713 345.622 801.931 345.622 799.915C345.622 798.043 346.036 796.369 346.864 794.893C347.692 793.381 349.006 791.977 350.806 790.681C352.606 789.349 354.892 788.053 357.664 786.793C359.68 785.857 361.264 785.029 362.416 784.309C363.568 783.589 364.378 782.905 364.846 782.257C365.314 781.573 365.548 780.889 365.548 780.205C365.548 779.269 365.224 778.513 364.576 777.937C363.964 777.361 363.046 777.073 361.822 777.073C360.526 777.073 359.518 777.397 358.798 778.045C358.078 778.693 357.718 779.521 357.718 780.529C357.718 781.069 357.826 781.609 358.042 782.149C358.258 782.653 358.672 783.247 359.284 783.931C359.896 784.579 360.76 785.425 361.876 786.469L381.802 804.937L377.212 810.283L355.234 789.871C353.974 788.719 352.966 787.639 352.21 786.631C351.454 785.623 350.896 784.633 350.536 783.661C350.212 782.689 350.05 781.681 350.05 780.637C350.05 778.801 350.536 777.181 351.508 775.777C352.48 774.373 353.848 773.293 355.612 772.537C357.376 771.745 359.446 771.349 361.822 771.349C364.018 771.349 365.908 771.709 367.492 772.429C369.112 773.113 370.372 774.103 371.272 775.399C372.208 776.695 372.676 778.243 372.676 780.043C372.676 781.627 372.28 783.085 371.488 784.417C370.696 785.713 369.454 786.937 367.762 788.089C366.106 789.241 363.928 790.411 361.228 791.599C359.392 792.427 357.934 793.237 356.854 794.029C355.81 794.785 355.054 795.559 354.586 796.351C354.118 797.143 353.884 798.025 353.884 798.997C353.884 799.897 354.154 800.707 354.694 801.427C355.27 802.147 356.062 802.705 357.07 803.101C358.078 803.497 359.266 803.695 360.634 803.695C362.83 803.695 364.846 803.191 366.682 802.183C368.518 801.139 370.066 799.609 371.326 797.593C372.622 795.541 373.54 793.057 374.08 790.141L380.83 792.247C380.074 795.919 378.724 799.105 376.78 801.805C374.836 804.505 372.442 806.593 369.598 808.069C366.754 809.545 363.568 810.283 360.04 810.283ZM410.733 809.635L427.581 771.835H436.221L453.123 809.635H443.943L430.119 776.263H433.575L419.697 809.635H410.733ZM419.157 801.535L421.479 794.893H440.919L443.295 801.535H419.157ZM463.524 809.635V771.835H470.76L486.852 798.511H483.018L498.84 771.835H506.022L506.13 809.635H497.922L497.868 784.417H499.38L486.744 805.639H482.802L469.896 784.417H471.732V809.635H463.524ZM539.939 810.283C536.951 810.283 534.179 809.797 531.623 808.825C529.103 807.853 526.907 806.485 525.035 804.721C523.199 802.957 521.759 800.887 520.715 798.511C519.707 796.135 519.203 793.543 519.203 790.735C519.203 787.927 519.707 785.335 520.715 782.959C521.759 780.583 523.217 778.513 525.089 776.749C526.961 774.985 529.157 773.617 531.677 772.645C534.197 771.673 536.933 771.187 539.885 771.187C542.873 771.187 545.609 771.673 548.093 772.645C550.613 773.617 552.791 774.985 554.627 776.749C556.499 778.513 557.957 780.583 559.001 782.959C560.045 785.299 560.567 787.891 560.567 790.735C560.567 793.543 560.045 796.153 559.001 798.565C557.957 800.941 556.499 803.011 554.627 804.775C552.791 806.503 550.613 807.853 548.093 808.825C545.609 809.797 542.891 810.283 539.939 810.283ZM539.885 802.831C541.577 802.831 543.125 802.543 544.529 801.967C545.969 801.391 547.229 800.563 548.309 799.483C549.389 798.403 550.217 797.125 550.793 795.649C551.405 794.173 551.711 792.535 551.711 790.735C551.711 788.935 551.405 787.297 550.793 785.821C550.217 784.345 549.389 783.067 548.309 781.987C547.265 780.907 546.023 780.079 544.583 779.503C543.143 778.927 541.577 778.639 539.885 778.639C538.193 778.639 536.627 778.927 535.187 779.503C533.783 780.079 532.541 780.907 531.461 781.987C530.381 783.067 529.535 784.345 528.923 785.821C528.347 787.297 528.059 788.935 528.059 790.735C528.059 792.499 528.347 794.137 528.923 795.649C529.535 797.125 530.363 798.403 531.407 799.483C532.487 800.563 533.747 801.391 535.187 801.967C536.627 802.543 538.193 802.831 539.885 802.831ZM573.621 809.635V771.835H590.793C594.897 771.835 598.515 772.627 601.647 774.211C604.779 775.759 607.227 777.937 608.991 780.745C610.755 783.553 611.637 786.883 611.637 790.735C611.637 794.551 610.755 797.881 608.991 800.725C607.227 803.533 604.779 805.729 601.647 807.313C598.515 808.861 594.897 809.635 590.793 809.635H573.621ZM582.369 802.453H590.361C592.881 802.453 595.059 801.985 596.895 801.049C598.767 800.077 600.207 798.709 601.215 796.945C602.259 795.181 602.781 793.111 602.781 790.735C602.781 788.323 602.259 786.253 601.215 784.525C600.207 782.761 598.767 781.411 596.895 780.475C595.059 779.503 592.881 779.017 590.361 779.017H582.369V802.453ZM624.714 809.635V771.835H633.462V809.635H624.714ZM667.273 810.283C664.285 810.283 661.513 809.797 658.957 808.825C656.437 807.853 654.241 806.485 652.369 804.721C650.533 802.957 649.093 800.887 648.049 798.511C647.041 796.135 646.537 793.543 646.537 790.735C646.537 787.927 647.041 785.335 648.049 782.959C649.093 780.583 650.551 778.513 652.423 776.749C654.295 774.985 656.491 773.617 659.011 772.645C661.531 771.673 664.267 771.187 667.219 771.187C670.207 771.187 672.943 771.673 675.427 772.645C677.947 773.617 680.125 774.985 681.961 776.749C683.833 778.513 685.291 780.583 686.335 782.959C687.379 785.299 687.901 787.891 687.901 790.735C687.901 793.543 687.379 796.153 686.335 798.565C685.291 800.941 683.833 803.011 681.961 804.775C680.125 806.503 677.947 807.853 675.427 808.825C672.943 809.797 670.225 810.283 667.273 810.283ZM667.219 802.831C668.911 802.831 670.459 802.543 671.863 801.967C673.303 801.391 674.563 800.563 675.643 799.483C676.723 798.403 677.551 797.125 678.127 795.649C678.739 794.173 679.045 792.535 679.045 790.735C679.045 788.935 678.739 787.297 678.127 785.821C677.551 784.345 676.723 783.067 675.643 781.987C674.599 780.907 673.357 780.079 671.917 779.503C670.477 778.927 668.911 778.639 667.219 778.639C665.527 778.639 663.961 778.927 662.521 779.503C661.117 780.079 659.875 780.907 658.795 781.987C657.715 783.067 656.869 784.345 656.257 785.821C655.681 787.297 655.393 788.935 655.393 790.735C655.393 792.499 655.681 794.137 656.257 795.649C656.869 797.125 657.697 798.403 658.741 799.483C659.821 800.563 661.081 801.391 662.521 801.967C663.961 802.543 665.527 802.831 667.219 802.831Z" fill="#595C5F"/>
</svg>
